<svg width="175" height="29" viewBox="0 0 175 29" fill="none" xmlns="http://www.w3.org/2000/svg">
<path d="M15.2266 20.2129V21.3203C15.2266 23.2539 14.5 24.9355 13.0469 26.3652C11.6875 27.6895 9.98242 28.3516 7.93164 28.3516C5.9043 28.3516 4.19922 27.6895 2.81641 26.3652C1.36328 24.959 0.636719 23.2773 0.636719 21.3203V15.3438C0.636719 13.3984 1.36328 11.7168 2.81641 10.2988C4.17578 8.97461 5.88086 8.3125 7.93164 8.3125C9.93555 8.3125 11.6406 8.97461 13.0469 10.2988C14.5 11.6699 15.2266 13.1816 15.2266 14.834V14.8691L11.8867 16.4512H11.7109V15.3438C11.7109 13.9961 11.3418 13.0117 10.6035 12.3906C9.87695 11.7578 8.98633 11.4414 7.93164 11.4414C6.87695 11.4414 5.98047 11.7578 5.24219 12.3906C4.51562 13.0117 4.15234 13.9961 4.15234 15.3438V21.3203C4.15234 22.668 4.51562 23.6582 5.24219 24.291C5.98047 24.9121 6.87695 25.2227 7.93164 25.2227C8.98633 25.2227 9.87695 24.9062 10.6035 24.2734C11.3418 23.6406 11.7109 22.8145 11.7109 21.7949L15.0508 20.2129H15.2266ZM20.5 21.3203V15.3438C20.5 13.4102 21.2266 11.7285 22.6797 10.2988C24.0391 8.97461 25.7441 8.3125 27.7949 8.3125C29.8223 8.3125 31.5273 8.97461 32.9102 10.2988C34.3633 11.7051 35.0898 13.3867 35.0898 15.3438V21.3203C35.0898 23.2539 34.3633 24.9355 32.9102 26.3652C31.5508 27.6895 29.8457 28.3516 27.7949 28.3516C25.7676 28.3516 24.0625 27.6895 22.6797 26.3652C21.2266 24.959 20.5 23.2773 20.5 21.3203ZM24.0156 21.3203C24.0156 22.668 24.3789 23.6582 25.1055 24.291C25.8438 24.9121 26.7402 25.2227 27.7949 25.2227C28.8496 25.2227 29.7402 24.9121 30.4668 24.291C31.2051 23.6582 31.5742 22.668 31.5742 21.3203V15.3438C31.5742 13.9961 31.2051 13.0117 30.4668 12.3906C29.7402 11.7578 28.8496 11.4414 27.7949 11.4414C26.7402 11.4414 25.8438 11.7578 25.1055 12.3906C24.3789 13.0117 24.0156 13.9961 24.0156 15.3438V21.3203ZM40.3633 28.7031V15.3438C40.3633 13.4102 41.0898 11.7285 42.543 10.2988C43.9023 8.97461 45.6074 8.3125 47.6582 8.3125C49.6855 8.3125 51.3906 8.97461 52.7734 10.2988C54.2266 11.7051 54.9531 13.3867 54.9531 15.3438V27.1211L51.6133 28.7031H51.4375V15.3438C51.4375 13.9961 51.0684 13.0117 50.3301 12.3906C49.6035 11.7578 48.7129 11.4414 47.6582 11.4414C46.6035 11.4414 45.707 11.7578 44.9688 12.3906C44.2422 13.0117 43.8789 13.9961 43.8789 15.3438V27.1211L40.5391 28.7031H40.3633ZM61.1055 28.7031V13.6211H58.4688V13.4453L59.8926 10.4219H61.1055V8.13672C61.1055 6.20312 61.832 4.52148 63.2852 3.0918C64.6445 1.76758 66.3496 1.10547 68.4004 1.10547H70.7734V1.28125L69.3672 4.23438H68.4004C67.3457 4.23438 66.4492 4.55078 65.7109 5.18359C64.9844 5.81641 64.6211 6.80078 64.6211 8.13672V10.4219H70.4395V10.5977L69.0156 13.6211H64.6211V27.1211L61.2812 28.7031H61.1055ZM88.8789 20.2129V21.3203C88.8789 23.2539 88.1523 24.9355 86.6992 26.3652C85.3398 27.6895 83.6348 28.3516 81.584 28.3516C79.5566 28.3516 77.8516 27.6895 76.4688 26.3652C75.0156 24.959 74.2891 23.2773 74.2891 21.3203V15.3438C74.2891 13.4102 75.0156 11.7285 76.4688 10.2988C77.8281 8.97461 79.5332 8.3125 81.584 8.3125C83.5762 8.3125 85.2812 8.97461 86.6992 10.2988C88.1523 11.6582 88.8789 13.1699 88.8789 14.834V14.8691L78.1562 23.2715C78.332 23.6699 78.5781 24.0039 78.8945 24.2734C79.6328 24.9062 80.5293 25.2227 81.584 25.2227C82.6387 25.2227 83.5293 24.9062 84.2559 24.2734C84.9941 23.6406 85.3633 22.8145 85.3633 21.7949L88.7031 20.2129H88.8789ZM77.8047 19.7207L85.1523 13.7617C84.9648 13.1875 84.6719 12.7305 84.2734 12.3906C83.5352 11.7578 82.6387 11.4414 81.584 11.4414C80.5293 11.4414 79.6328 11.7578 78.8945 12.3906C78.168 13.0117 77.8047 13.9961 77.8047 15.3438V19.7207ZM93.625 21.7949L96.9648 20.2129H97.1406V21.6191C97.1406 22.9316 97.5215 23.9277 98.2832 24.6074C99.0098 25.252 99.8887 25.5742 100.92 25.5742C102.115 25.5742 103.047 25.1934 103.715 24.4316C104.418 23.6348 104.77 22.7676 104.77 21.8301C104.77 20.8223 104.395 20.0254 103.645 19.4395C103 18.9355 102.086 18.6836 100.902 18.6836C98.8164 18.6836 97.1699 18.2266 95.9629 17.3125C94.8965 16.5156 94.3633 15.2793 94.3633 13.6035C94.3633 11.9746 95.1074 10.627 96.5957 9.56055C97.7559 8.72852 99.1973 8.3125 100.92 8.3125C102.572 8.3125 104.008 8.82812 105.227 9.85938C106.164 10.668 106.744 11.6055 106.967 12.6719L103.627 14.2539H103.451V13.7441C103.451 13.1348 103.275 12.6133 102.924 12.1797C102.361 11.4531 101.559 11.0898 100.516 11.0898C99.6836 11.0898 99.0039 11.3535 98.4766 11.8809C97.9609 12.3965 97.7031 12.9707 97.7031 13.6035C97.7031 14.3535 98.0195 14.9512 98.6523 15.3965C99.0039 15.6426 99.7539 15.7656 100.902 15.7656C103.281 15.7656 105.068 16.3105 106.264 17.4004C107.564 18.584 108.215 20.125 108.215 22.0234C108.215 23.5469 107.541 25 106.193 26.3828C104.916 27.6953 103.158 28.3516 100.92 28.3516C98.8926 28.3516 97.1875 27.7891 95.8047 26.6641C94.3516 25.4805 93.625 23.8574 93.625 21.7949ZM112.434 21.7949L115.773 20.2129H115.949V21.6191C115.949 22.9316 116.33 23.9277 117.092 24.6074C117.818 25.252 118.697 25.5742 119.729 25.5742C120.924 25.5742 121.855 25.1934 122.523 24.4316C123.227 23.6348 123.578 22.7676 123.578 21.8301C123.578 20.8223 123.203 20.0254 122.453 19.4395C121.809 18.9355 120.895 18.6836 119.711 18.6836C117.625 18.6836 115.979 18.2266 114.771 17.3125C113.705 16.5156 113.172 15.2793 113.172 13.6035C113.172 11.9746 113.916 10.627 115.404 9.56055C116.564 8.72852 118.006 8.3125 119.729 8.3125C121.381 8.3125 122.816 8.82812 124.035 9.85938C124.973 10.668 125.553 11.6055 125.775 12.6719L122.436 14.2539H122.26V13.7441C122.26 13.1348 122.084 12.6133 121.732 12.1797C121.17 11.4531 120.367 11.0898 119.324 11.0898C118.492 11.0898 117.812 11.3535 117.285 11.8809C116.77 12.3965 116.512 12.9707 116.512 13.6035C116.512 14.3535 116.828 14.9512 117.461 15.3965C117.812 15.6426 118.562 15.7656 119.711 15.7656C122.09 15.7656 123.877 16.3105 125.072 17.4004C126.373 18.584 127.023 20.125 127.023 22.0234C127.023 23.5469 126.35 25 125.002 26.3828C123.725 27.6953 121.967 28.3516 119.729 28.3516C117.701 28.3516 115.996 27.7891 114.613 26.6641C113.16 25.4805 112.434 23.8574 112.434 21.7949ZM134.09 28.7031V11.8633H129.572V11.6875L130.996 8.66406H134.09V2.33594L137.43 0.753906H137.605V8.66406H142.123V8.83984L140.699 11.8633H137.605V27.1211L134.266 28.7031H134.09ZM159.789 20.2129V21.3203C159.789 23.2539 159.062 24.9355 157.609 26.3652C156.25 27.6895 154.545 28.3516 152.494 28.3516C150.467 28.3516 148.762 27.6895 147.379 26.3652C145.926 24.959 145.199 23.2773 145.199 21.3203V15.3438C145.199 13.4102 145.926 11.7285 147.379 10.2988C148.738 8.97461 150.443 8.3125 152.494 8.3125C154.486 8.3125 156.191 8.97461 157.609 10.2988C159.062 11.6582 159.789 13.1699 159.789 14.834V14.8691L149.066 23.2715C149.242 23.6699 149.488 24.0039 149.805 24.2734C150.543 24.9062 151.439 25.2227 152.494 25.2227C153.549 25.2227 154.439 24.9062 155.166 24.2734C155.904 23.6406 156.273 22.8145 156.273 21.7949L159.613 20.2129H159.789ZM148.715 19.7207L156.062 13.7617C155.875 13.1875 155.582 12.7305 155.184 12.3906C154.445 11.7578 153.549 11.4414 152.494 11.4414C151.439 11.4414 150.543 11.7578 149.805 12.3906C149.078 13.0117 148.715 13.9961 148.715 15.3438V19.7207ZM165.062 28.7031V15.3438C165.062 13.4102 165.789 11.7285 167.242 10.2988C168.602 8.97461 170.307 8.3125 172.357 8.3125H174.73V8.48828L173.324 11.4414H172.357C171.303 11.4414 170.406 11.7578 169.668 12.3906C168.941 13.0117 168.578 13.9961 168.578 15.3438C168.578 15.3438 168.578 19.2695 168.578 27.1211L165.238 28.7031H165.062Z" fill="url(#paint0_linear_1_3)"/>
<defs>
<linearGradient id="paint0_linear_1_3" x1="36.0342" y1="-6.00001" x2="174.932" y2="52.8647" gradientUnits="userSpaceOnUse">
<stop stop-color="#8C38F8"/>
<stop offset="0.442708" stop-color="#51C0EF"/>
<stop offset="0.947917" stop-color="#F630FA"/>
</linearGradient>
</defs>
</svg>
